<?xml version="1.0" standalone="no"?>
<!DOCTYPE svg PUBLIC "-//W3C//DTD SVG 20010904//EN"
 "http://www.w3.org/TR/2001/REC-SVG-20010904/DTD/svg10.dtd">
<svg version="1.0" xmlns="http://www.w3.org/2000/svg"
 width="200.000000pt" height="200.000000pt" viewBox="0 0 200.000000 200.000000"
 preserveAspectRatio="xMidYMid meet">
<metadata>
Created by potrace 1.15, written by Peter Selinger 2001-2017
</metadata>
<g transform="translate(0.000000,200.000000) scale(0.100000,-0.100000)"
fill="#000000" stroke="none">
<path d="M1591 1366 c-57 -32 -69 -115 -22 -160 76 -72 193 -10 177 94 -10 68
-90 102 -155 66z m99 -36 c41 -41 12 -120 -45 -120 -31 0 -75 41 -75 70 0 29
44 70 75 70 14 0 34 -9 45 -20z"/>
<path d="M984 1189 c-3 -6 -1 -28 5 -48 11 -34 6 -51 -107 -341 l-118 -305
-187 -3 -187 -2 0 60 0 60 115 0 c113 0 115 0 115 23 0 20 -212 506 -233 535
-5 6 -15 12 -21 12 -15 0 -256 -518 -256 -549 0 -20 4 -21 115 -21 l115 0 0
-60 0 -60 -121 0 c-109 0 -120 -2 -117 -18 3 -16 44 -17 698 -17 648 0 695 1
698 17 3 15 -9 18 -103 20 l-107 3 -118 306 c-114 295 -118 307 -107 347 12
47 5 62 -23 44 -12 -7 -21 -8 -25 -2 -8 13 -22 13 -31 -1z m160 -435 c53 -138
96 -253 96 -257 0 -4 -21 -7 -48 -7 l-47 0 -39 100 c-53 140 -65 199 -66 319
0 57 2 102 4 100 2 -2 47 -117 100 -255z m-183 -130 l-49 -129 -50 -3 c-46 -3
-50 -1 -45 17 3 10 16 22 29 25 28 7 31 21 7 35 -15 9 -12 10 15 11 22 0 32 5
32 15 0 9 -9 15 -21 15 -16 0 -20 4 -15 18 4 9 37 94 74 189 l67 172 3 -118 3
-118 -50 -129z"/>
</g>
</svg>
