<?xml version="1.0" standalone="no"?>
<!DOCTYPE svg PUBLIC "-//W3C//DTD SVG 20010904//EN"
 "http://www.w3.org/TR/2001/REC-SVG-20010904/DTD/svg10.dtd">
<svg version="1.0" xmlns="http://www.w3.org/2000/svg"
 width="200.000000pt" height="200.000000pt" viewBox="0 0 200.000000 200.000000"
 preserveAspectRatio="xMidYMid meet">
<metadata>
Created by potrace 1.11, written by Peter Selinger 2001-2013
</metadata>
<g transform="translate(0.000000,200.000000) scale(0.100000,-0.100000)"
fill="#000000" stroke="none">
<path d="M1630 1491 c0 -48 3 -61 15 -61 13 0 15 11 13 57 -4 81 -28 85 -28 4z"/>
<path d="M1450 1460 c0 -12 70 -80 82 -80 18 0 6 28 -25 58 -33 32 -57 41 -57
22z"/>
<path d="M1767 1435 c-39 -37 -46 -55 -24 -55 17 0 89 74 81 83 -12 12 -20 8
-57 -28z"/>
<path d="M1595 1381 c-55 -23 -73 -80 -44 -139 41 -81 142 -84 183 -4 41 82
-53 178 -139 143z"/>
<path d="M1395 1302 c-18 -18 0 -28 48 -26 71 2 71 2 58 18 -11 13 -95 19
-106 8z"/>
<path d="M1784 1299 c-11 -18 6 -25 58 -25 40 1 53 5 53 16 0 11 -13 15 -53
16 -29 1 -55 -3 -58 -7z"/>
<path d="M992 1188 c-7 -9 -6 -22 2 -43 12 -27 10 -39 -16 -110 -41 -112 -155
-408 -185 -482 l-26 -63 -194 0 -193 0 0 63 0 63 115 0 c63 0 118 3 121 7 7 7
-17 66 -148 357 -83 185 -108 218 -123 169 -4 -12 -33 -77 -64 -143 -122 -258
-174 -376 -168 -383 4 -3 59 -6 122 -7 l115 0 0 -63 0 -63 -110 -1 c-60 -1
-114 -3 -120 -4 -5 -1 -13 -3 -17 -4 -4 0 -2 -6 5 -13 16 -16 1333 -22 1372
-7 39 16 6 29 -75 29 l-71 0 -129 320 c-116 287 -131 319 -143 303 -13 -17
-14 -16 -8 7 3 14 9 35 12 48 5 16 2 22 -9 22 -9 0 -19 -5 -23 -12 -5 -8 -11
-6 -19 6 -10 13 -15 14 -23 4z m26 -185 c-11 -24 -27 -62 -38 -91 -22 -58 -20
-29 2 36 12 34 26 62 31 62 4 0 7 -3 5 -7z m-717 -46 c-10 -9 -11 -8 -5 6 3
10 9 15 12 12 3 -3 0 -11 -7 -18z m-37 -93 c-9 -21 -25 -59 -36 -84 -12 -25
-29 -65 -40 -89 -10 -24 -21 -41 -24 -38 -3 2 21 61 52 131 32 69 60 124 61
122 2 -2 -4 -20 -13 -42z m677 -45 c-11 -24 -20 -41 -20 -37 -1 12 31 89 35
85 3 -2 -4 -24 -15 -48z m-30 -72 c-10 -9 -11 -8 -5 6 3 10 9 15 12 12 3 -3 0
-11 -7 -18z m-14 -39 c-3 -8 -6 -5 -6 6 -1 11 2 17 5 13 3 -3 4 -12 1 -19z"/>
<path d="M1485 1154 c-36 -41 -41 -54 -23 -54 18 0 91 74 82 83 -14 13 -29 5
-59 -29z"/>
<path d="M1730 1180 c0 -10 69 -80 80 -80 22 0 16 18 -17 52 -35 36 -63 49
-63 28z"/>
<path d="M1632 1095 c2 -30 8 -55 13 -55 6 0 11 25 13 55 2 45 0 55 -13 55
-13 0 -15 -10 -13 -55z"/>
</g>
</svg>
